IKResults
version=1
nRows=11
nColumns=63
inDegrees=yes

Units are S.I. units (second, meters, Newtons, ...)
If the header above contains a line with 'inDegrees', this indicates whether rotational values are in degrees (yes) or radians (no).

endheader
time	pelvis_tilt	pelvis_list	pelvis_rotation	pelvis_tx	pelvis_ty	pelvis_tz	hip_flexion_r	hip_adduction_r	hip_rotation_r	knee_angle_r	knee_angle_r_beta	ankle_angle_r	subtalar_angle_r	mtp_angle_r	hip_flexion_l	hip_adduction_l	hip_rotation_l	knee_angle_l	knee_angle_l_beta	ankle_angle_l	subtalar_angle_l	mtp_angle_l	L5_S1_Flex_Ext	L5_S1_Lat_Bending	L5_S1_axial_rotation	L4_L5_Flex_Ext	L4_L5_Lat_Bending	L4_L5_axial_rotation	L3_L4_Flex_Ext	L3_L4_Lat_Bending	L3_L4_axial_rotation	L2_L3_Flex_Ext	L2_L3_Lat_Bending	L2_L3_axial_rotation	L1_L2_Flex_Ext	L1_L2_Lat_Bending	L1_L2_axial_rotation	L1_T12_Flex_Ext	L1_T12_Lat_Bending	L1_T12_axial_rotation	Abs_r3	Abs_r2	Abs_r1	Abs_t1	Abs_t2	neck_flexion	neck_bending	neck_rotation	arm_flex_r	arm_add_r	arm_rot_r	elbow_flex_r	pro_sup_r	wrist_flex_r	wrist_dev_r	arm_flex_l	arm_add_l	arm_rot_l	elbow_flex_l	pro_sup_l	wrist_flex_l	wrist_dev_l
      0.03333333	      6.41232391	      2.46716013	      1.08965498	      0.04131751	      0.95938687	     -0.48569134	    -15.30352624	     -7.38452301	     -9.09728945	      1.92786516	      0.03364759	     10.85642660	     -1.62232945	      0.00000000	    -12.06668777	     -6.42302092	    -11.87363720	      6.41818360	      0.11201844	     13.84073401	     -0.91286800	      0.00000000	     -1.00952099	     -0.30569327	     -0.53870071	     -1.87478144	     -0.40657204	     -0.57236950	     -1.65854204	     -0.74326261	     -0.57236950	     -1.15378154	     -0.74326261	     -0.47136312	     -0.93744119	     -0.62336971	     -0.43769433	     -0.57684030	     -0.47351887	     -0.40402553	     -7.21090751	     -3.45806337	     -2.99609174	      0.00000000	      0.00000000	     19.92723454	      0.01066369	     -9.70252558	      8.38241563	    -12.04913679	     91.74918524	     17.45900733	     89.99559364	      0.00000000	      0.00000000	     -8.19987156	    -11.72509349	      9.50732399	     33.94751931	     89.99559364	      0.00000000	      0.00000000
      0.06666667	      6.42124123	      2.46777153	      1.09244948	      0.04109699	      0.95944098	     -0.48570395	    -15.29829162	     -7.38341230	     -9.09617669	      1.94094290	      0.03387584	     10.85605886	     -1.62158300	      0.00000000	    -12.06724201	     -6.42178506	    -11.87349818	      6.42293855	      0.11210143	     13.83866394	     -0.91286157	      0.00000000	     -1.00950003	     -0.30577137	     -0.53875417	     -1.87474250	     -0.40667592	     -0.57242630	     -1.65850759	     -0.74345251	     -0.57242630	     -1.15375758	     -0.74345251	     -0.47140989	     -0.93742172	     -0.62352898	     -0.43773776	     -0.57682831	     -0.47363985	     -0.40406562	     -7.21075773	     -3.45894690	     -2.99638904	      0.00000000	      0.00000000	     19.92184155	      0.01064871	     -9.70193686	      8.38177631	    -12.04878233	     91.74915887	     17.46166329	     89.99559364	      0.00000000	      0.00000000	     -8.20390797	    -11.72430837	      9.50788325	     33.94821014	     89.99559364	      0.00000000	      0.00000000
      0.10000000	      6.44398697	      2.46955879	      1.05615274	      0.04036160	      0.95963621	     -0.48569203	    -15.25402409	     -7.39842933	     -9.05933656	      1.95964772	      0.03420230	     10.79161798	     -1.60167472	      0.00000000	    -12.02521870	     -6.41223475	    -11.98867293	      6.48458417	      0.11317734	     13.61013524	     -0.95647375	      0.00000000	     -1.01764185	     -0.30632922	     -0.55414526	     -1.88986268	     -0.40741786	     -0.58877934	     -1.67188379	     -0.74480887	     -0.58877934	     -1.16306287	     -0.74480887	     -0.48487711	     -0.94498222	     -0.62466655	     -0.45024303	     -0.58148055	     -0.47450396	     -0.41560895	     -7.26891396	     -3.46525740	     -3.08198972	      0.00000000	      0.00000000	     19.89657260	      0.00232760	     -9.70150481	      8.47954496	    -12.01520022	     91.72271111	     17.42551271	     89.99559364	      0.00000000	      0.00000000	     -8.28521479	    -11.70029277	      9.52425911	     33.96913221	     89.99559364	      0.00000000	      0.00000000
      0.13333333	      6.50153250	      2.51611664	      0.97627982	      0.03937937	      0.95992102	     -0.48545844	    -15.21813022	     -7.45847833	     -8.95056608	      1.99909815	      0.03489084	     10.70049942	     -1.62309389	      0.00000000	    -11.98875911	     -6.35008867	    -12.27121340	      6.58975639	      0.11501295	     13.29872730	     -1.13611205	      0.00000000	     -1.03016623	     -0.31377171	     -0.56318132	     -1.91312171	     -0.41731637	     -0.59838015	     -1.69246011	     -0.76290453	     -0.59838015	     -1.17737699	     -0.76290453	     -0.49278365	     -0.95661236	     -0.63984327	     -0.45758482	     -0.58863699	     -0.48603238	     -0.42238599	     -7.35837439	     -3.54944833	     -3.13224554	      0.00000000	      0.00000000	     19.85853375	     -0.03493019	     -9.61836232	      8.57136199	    -11.89598153	     91.63805882	     17.25077366	     89.99559364	      0.00000000	      0.00000000	     -8.39235447	    -11.76321671	      9.51012489	     34.14418169	     89.99559364	      0.00000000	      0.00000000
      0.16666667	      6.53585440	      2.51889651	      0.96947206	      0.03842166	      0.96008369	     -0.48550713	    -15.18951197	     -7.46289726	     -8.93326315	      2.01146271	      0.03510665	     10.69470588	     -1.62036135	      0.00000000	    -11.97335781	     -6.33676567	    -12.28684434	      6.60700735	      0.11531403	     13.24832148	     -1.14100975	      0.00000000	     -1.03488516	     -0.31344117	     -0.56589264	     -1.92188523	     -0.41687676	     -0.60126093	     -1.70021283	     -0.76210087	     -0.60126093	     -1.18277025	     -0.76210087	     -0.49515606	     -0.96099436	     -0.63916924	     -0.45978777	     -0.59133338	     -0.48552038	     -0.42441948	     -7.39208121	     -3.54570924	     -3.14732510	      0.00000000	      0.00000000	     19.84270857	     -0.03492703	     -9.61308890	      8.57884781	    -11.86858311	     91.62895768	     17.24207510	     89.99559364	      0.00000000	      0.00000000	     -8.44199346	    -11.72925700	      9.52289083	     34.15072715	     89.99559364	      0.00000000	      0.00000000
      0.20000000	      6.74103309	      2.65724124	      0.70139080	      0.03696629	      0.96054726	     -0.48501398	    -15.25395270	     -7.66652524	     -8.24553887	      2.05248879	      0.03582269	     10.61192897	     -2.08989241	      0.00000000	    -12.10813778	     -6.13369359	    -12.59240226	      6.67920606	      0.11657414	     12.70087988	     -1.54320444	      0.00000000	     -1.07248540	     -0.33085295	     -0.57728910	     -1.99171263	     -0.44003443	     -0.61336967	     -1.76198626	     -0.80443587	     -0.61336967	     -1.22574356	     -0.80443587	     -0.50512796	     -0.99590994	     -0.67467534	     -0.46904739	     -0.61281816	     -0.51249122	     -0.43296683	     -7.66065595	     -3.74267477	     -3.21070880	      0.00000000	      0.00000000	     19.95049107	      0.09915044	     -8.99745112	      8.72547207	    -11.48922465	     90.99343041	     16.52995511	     89.99559364	      0.00000000	      0.00000000	     -8.67676188	    -11.82011900	      9.45338864	     34.58005309	     89.99559364	      0.00000000	      0.00000000
      0.23333333	      6.78844020	      2.64350711	      0.67475547	      0.03539190	      0.96075532	     -0.48499279	    -15.20328651	     -7.66065301	     -8.13872555	      2.03890956	      0.03558568	     10.55660753	     -2.11787925	      0.00000000	    -12.03525166	     -6.14331678	    -12.73176334	      6.73492852	      0.11754668	     12.50618014	     -1.63231882	      0.00000000	     -1.08157118	     -0.32988364	     -0.60358879	     -2.00858583	     -0.43874524	     -0.64131309	     -1.77691329	     -0.80207908	     -0.64131309	     -1.23612770	     -0.80207908	     -0.52814019	     -1.00434700	     -0.67269872	     -0.49041589	     -0.61800977	     -0.51098976	     -0.45269159	     -7.72555476	     -3.73170971	     -3.35697977	      0.00000000	      0.00000000	     19.92160381	      0.08965045	     -8.93658068	      8.86051168	    -11.43016178	     90.89002203	     16.43933072	     89.99559364	      0.00000000	      0.00000000	     -8.69173226	    -11.81240116	      9.46267776	     34.61174708	     89.99559364	      0.00000000	      0.00000000
      0.26666667	      7.36108207	      2.67414386	      0.53948458	      0.03318905	      0.96150985	     -0.48477069	    -15.71308467	     -7.65047194	     -5.85015011	      1.91145318	      0.03336115	      9.77695548	     -5.36473999	      0.00000000	    -12.50539379	     -6.05224817	    -12.35141127	      6.76377986	      0.11805023	     12.12826548	     -2.66601444	      0.00000000	     -1.19523758	     -0.33074170	     -0.61589697	     -2.21967570	     -0.43988646	     -0.65439053	     -1.96365581	     -0.80416537	     -0.65439053	     -1.36603703	     -0.80416537	     -0.53890985	     -1.10989761	     -0.67444848	     -0.50041629	     -0.68295875	     -0.51231889	     -0.46192273	     -8.53746249	     -3.74141627	     -3.42543418	      0.00000000	      0.00000000	     20.50687756	      0.38543546	     -7.98005768	      8.71147981	    -11.42019675	     86.45777451	     16.28236911	     89.99559364	      0.00000000	      0.00000000	     -8.51142098	    -11.84864980	      9.45538165	     34.78854136	     89.99559364	      0.00000000	      0.00000000
      0.30000000	      6.73736150	      2.68460268	      0.36733915	      0.03255683	      0.96067548	     -0.48442358	    -14.97895575	     -7.71053531	     -5.48044665	      1.87773338	      0.03277263	      9.87947119	     -5.47602204	      0.00000000	    -11.81187892	     -6.00635172	    -12.55425293	      6.78745782	      0.11846349	     12.08305830	     -2.74076184	      0.00000000	     -1.07144690	     -0.33214661	     -0.54870114	     -1.98978403	     -0.44175500	     -0.58299497	     -1.76028011	     -0.80758128	     -0.58299497	     -1.22455666	     -0.80758128	     -0.48011350	     -0.99494559	     -0.67731338	     -0.44581968	     -0.61222476	     -0.51449511	     -0.41152586	     -7.65323803	     -3.75730894	     -3.05171115	      0.00000000	      0.00000000	     20.38219267	      0.28688827	     -8.07178363	      5.49008567	    -11.48009315	     64.02436781	     16.82539410	     89.99559364	      0.00000000	      0.00000000	     -8.61806999	    -11.91343289	      9.84764562	     34.75406086	     89.99559364	      0.00000000	      0.00000000
      0.33333333	      6.75031874	      2.67325024	      0.29898823	      0.03078097	      0.96065088	     -0.48426922	    -14.88311499	     -7.70504436	     -5.43420887	      1.83562273	      0.03203766	      9.93678615	     -5.45266097	      0.00000000	    -11.71307191	     -6.01331378	    -12.60302387	      6.78428475	      0.11840811	     12.04983254	     -2.77198010	      0.00000000	     -1.07178996	     -0.33164592	     -0.55594290	     -1.99042114	     -0.44108907	     -0.59068933	     -1.76084373	     -0.80636388	     -0.59068933	     -1.22494875	     -0.80636388	     -0.48645004	     -0.99526416	     -0.67629235	     -0.45170361	     -0.61242079	     -0.51371952	     -0.41695718	     -7.65568853	     -3.75164494	     -3.09198764	      0.00000000	      0.00000000	     20.46258762	      0.28593334	     -8.01800083	      5.63063072	    -11.43085781	     63.98828145	     16.83404296	     89.99559364	      0.00000000	      0.00000000	     -8.52957198	    -11.92726341	      9.85031273	     34.77402955	     89.99559364	      0.00000000	      0.00000000
      0.36666667	      6.76969208	      2.63189293	     -0.18188152	      0.02856688	      0.96054089	     -0.48356600	    -14.59675077	     -7.79937606	     -4.95962465	      1.94245678	      0.03390227	     10.24028749	     -5.14826224	      0.00000000	    -11.60488848	     -5.96940372	    -13.02227422	      6.90893982	      0.12058375	     11.91359611	     -3.17083472	      0.00000000	     -1.08308891	     -0.32540699	     -0.50529568	     -2.01140442	     -0.43279129	     -0.53687666	     -1.77940677	     -0.79119455	     -0.53687666	     -1.23786232	     -0.79119455	     -0.44213372	     -1.00575636	     -0.66356993	     -0.41055274	     -0.61887700	     -0.50405542	     -0.37897176	     -7.73639579	     -3.68106893	     -2.81030296	      0.00000000	      0.00000000	     21.06446293	      0.59792476	     -6.99253457	      5.82046518	    -11.33302881	     63.30680334	     16.66938930	     89.99559364	      0.00000000	      0.00000000	     -8.37001881	    -11.96573784	     10.08181403	     34.74239937	     89.99559364	      0.00000000	      0.00000000
